<svg style="position: absolute; width: 0; height: 0; overflow: hidden;" version="1.1" xmlns="http://www.w3.org/2000/svg" xmlns:xlink="http://www.w3.org/1999/xlink">
<defs>
  <symbol id="icon-flower" viewBox="0 0 32 32">
  <title>flower</title>
  <path d="M21.827 14.292c0 2.824-1.111 5.474-3.113 7.562-0.571 0.597-0.426 1.067 0.399 1.006 2.333-0.173 4.539-1.091 6.234-2.787 2.063-2.063 2.981-4.88 2.799-7.766-0.052-0.826-0.851-1.623-1.676-1.675-1.232-0.077-2.45 0.047-3.605 0.375-0.797 0.226-1.233 1.122-1.13 1.888 0.062 0.459 0.093 0.925 0.093 1.396z"></path>
  <path d="M31.29 17.982c-0.385-0.278-0.782-0.53-1.193-0.754-0.727-0.397-1.556 0.019-1.916 0.763-0.511 1.058-1.194 2.029-2.045 2.879-2.027 2.028-4.81 3.151-7.838 3.151-0.067 0-0.134-0.001-0.203-0.003-0.112-0.003 0.363 0.358 1.119 0.696 1.893 0.845 3.991 1.115 6.079 0.645 2.847-0.64 5.128-2.53 6.517-5.065 0.397-0.727 0.149-1.827-0.52-2.311z"></path>
  <path d="M13.701 24.020c-3.027 0-5.81-1.124-7.838-3.151-0.85-0.851-1.533-1.822-2.044-2.879-0.36-0.745-1.192-1.161-1.917-0.764-0.41 0.225-0.808 0.477-1.192 0.755-0.669 0.485-0.917 1.585-0.52 2.311 1.387 2.537 3.669 4.427 6.516 5.066 2.087 0.47 4.185 0.2 6.079-0.645 0.755-0.338 1.23-0.698 1.118-0.696-0.068 0.002-0.135 0.002-0.202 0.002z"></path>
  <path d="M12.91 22.861c0.826 0.059 0.97-0.414 0.398-1.010-1.999-2.087-3.111-4.736-3.111-7.56 0-0.469 0.031-0.933 0.091-1.39 0.101-0.763-0.334-1.658-1.13-1.886-1.161-0.333-2.389-0.46-3.631-0.382-0.826 0.052-1.622 0.849-1.675 1.675-0.182 2.885 0.736 5.702 2.799 7.765 1.702 1.702 3.916 2.622 6.258 2.79z"></path>
  <path d="M17.197 6.822c-0.62-0.547-1.749-0.547-2.37 0-2.169 1.911-3.512 4.551-3.512 7.47s1.343 5.56 3.512 7.471c0.62 0.546 1.749 0.546 2.37 0 2.169-1.911 3.512-4.552 3.512-7.471s-1.343-5.559-3.512-7.47z"></path>
  </symbol>
</defs>
</svg>
