<svg style="position: absolute; width: 0; height: 0; overflow: hidden;" version="1.1" xmlns="http://www.w3.org/2000/svg" xmlns:xlink="http://www.w3.org/1999/xlink">
<defs>
  <symbol id="icon-flower" viewBox="0 0 32 32">
  <title>flower</title>
  <path d="M21.827 14.292c0 2.824-1.111 5.474-3.113 7.562-0.571 0.597-0.426 1.067 0.399 1.006 2.333-0.173 4.539-1.091 6.234-2.787 2.063-2.063 2.981-4.88 2.799-7.766-0.052-0.826-0.851-1.623-1.676-1.675-1.232-0.077-2.45 0.047-3.605 0.375-0.797 0.226-1.233 1.122-1.13 1.888 0.062 0.459 0.093 0.925 0.093 1.396z"></path>
  <path d="M31.29 17.982c-0.385-0.278-0.782-0.53-1.193-0.754-0.727-0.397-1.556 0.019-1.916 0.763-0.511 1.058-1.194 2.029-2.045 2.879-2.027 2.028-4.81 3.151-7.838 3.151-0.067 0-0.134-0.001-0.203-0.003-0.112-0.003 0.363 0.358 1.119 0.696 1.893 0.845 3.991 1.115 6.079 0.645 2.847-0.64 5.128-2.53 6.517-5.065 0.397-0.727 0.149-1.827-0.52-2.311z"></path>
  <path d="M13.701 24.020c-3.027 0-5.81-1.124-7.838-3.151-0.85-0.851-1.533-1.822-2.044-2.879-0.36-0.745-1.192-1.161-1.917-0.764-0.41 0.225-0.808 0.477-1.192 0.755-0.669 0.485-0.917 1.585-0.52 2.311 1.387 2.537 3.669 4.427 6.516 5.066 2.087 0.47 4.185 0.2 6.079-0.645 0.755-0.338 1.23-0.698 1.118-0.696-0.068 0.002-0.135 0.002-0.202 0.002z"></path>
  <path d="M12.91 22.861c0.826 0.059 0.97-0.414 0.398-1.010-1.999-2.087-3.111-4.736-3.111-7.56 0-0.469 0.031-0.933 0.091-1.39 0.101-0.763-0.334-1.658-1.13-1.886-1.161-0.333-2.389-0.46-3.631-0.382-0.826 0.052-1.622 0.849-1.675 1.675-0.182 2.885 0.736 5.702 2.799 7.765 1.702 1.702 3.916 2.622 6.258 2.79z"></path>
  <path d="M17.197 6.822c-0.62-0.547-1.749-0.547-2.37 0-2.169 1.911-3.512 4.551-3.512 7.47s1.343 5.56 3.512 7.471c0.62 0.546 1.749 0.546 2.37 0 2.169-1.911 3.512-4.552 3.512-7.471s-1.343-5.559-3.512-7.47z"></path>
  </symbol>
  <symbol id="icon-facebook" viewBox="0 0 32 32">
  <title>facebook</title>
  <path d="M19 6h5v-6h-5c-3.86 0-7 3.14-7 7v3h-4v6h4v16h6v-16h5l1-6h-6v-3c0-0.542 0.458-1 1-1z"></path>
  </symbol>
  <symbol id="icon-instagram" viewBox="0 0 32 32">
  <title>instagram</title>
  <path d="M16 2.881c4.275 0 4.781 0.019 6.462 0.094 1.563 0.069 2.406 0.331 2.969 0.55 0.744 0.288 1.281 0.638 1.837 1.194 0.563 0.563 0.906 1.094 1.2 1.838 0.219 0.563 0.481 1.412 0.55 2.969 0.075 1.688 0.094 2.194 0.094 6.463s-0.019 4.781-0.094 6.463c-0.069 1.563-0.331 2.406-0.55 2.969-0.288 0.744-0.637 1.281-1.194 1.837-0.563 0.563-1.094 0.906-1.837 1.2-0.563 0.219-1.413 0.481-2.969 0.55-1.688 0.075-2.194 0.094-6.463 0.094s-4.781-0.019-6.463-0.094c-1.563-0.069-2.406-0.331-2.969-0.55-0.744-0.288-1.281-0.637-1.838-1.194-0.563-0.563-0.906-1.094-1.2-1.837-0.219-0.563-0.481-1.413-0.55-2.969-0.075-1.688-0.094-2.194-0.094-6.463s0.019-4.781 0.094-6.463c0.069-1.563 0.331-2.406 0.55-2.969 0.288-0.744 0.638-1.281 1.194-1.838 0.563-0.563 1.094-0.906 1.838-1.2 0.563-0.219 1.412-0.481 2.969-0.55 1.681-0.075 2.188-0.094 6.463-0.094zM16 0c-4.344 0-4.887 0.019-6.594 0.094-1.7 0.075-2.869 0.35-3.881 0.744-1.056 0.412-1.95 0.956-2.837 1.85-0.894 0.888-1.438 1.781-1.85 2.831-0.394 1.019-0.669 2.181-0.744 3.881-0.075 1.713-0.094 2.256-0.094 6.6s0.019 4.887 0.094 6.594c0.075 1.7 0.35 2.869 0.744 3.881 0.413 1.056 0.956 1.95 1.85 2.837 0.887 0.887 1.781 1.438 2.831 1.844 1.019 0.394 2.181 0.669 3.881 0.744 1.706 0.075 2.25 0.094 6.594 0.094s4.888-0.019 6.594-0.094c1.7-0.075 2.869-0.35 3.881-0.744 1.050-0.406 1.944-0.956 2.831-1.844s1.438-1.781 1.844-2.831c0.394-1.019 0.669-2.181 0.744-3.881 0.075-1.706 0.094-2.25 0.094-6.594s-0.019-4.887-0.094-6.594c-0.075-1.7-0.35-2.869-0.744-3.881-0.394-1.063-0.938-1.956-1.831-2.844-0.887-0.887-1.781-1.438-2.831-1.844-1.019-0.394-2.181-0.669-3.881-0.744-1.712-0.081-2.256-0.1-6.6-0.1v0z"></path>
  <path d="M16 7.781c-4.537 0-8.219 3.681-8.219 8.219s3.681 8.219 8.219 8.219 8.219-3.681 8.219-8.219c0-4.537-3.681-8.219-8.219-8.219zM16 21.331c-2.944 0-5.331-2.387-5.331-5.331s2.387-5.331 5.331-5.331c2.944 0 5.331 2.387 5.331 5.331s-2.387 5.331-5.331 5.331z"></path>
  <path d="M26.462 7.456c0 1.060-0.859 1.919-1.919 1.919s-1.919-0.859-1.919-1.919c0-1.060 0.859-1.919 1.919-1.919s1.919 0.859 1.919 1.919z"></path>
  </symbol>
  <symbol id="icon-twitter" viewBox="0 0 32 32">
  <title>twitter</title>
  <path d="M32 7.075c-1.175 0.525-2.444 0.875-3.769 1.031 1.356-0.813 2.394-2.1 2.887-3.631-1.269 0.75-2.675 1.3-4.169 1.594-1.2-1.275-2.906-2.069-4.794-2.069-3.625 0-6.563 2.938-6.563 6.563 0 0.512 0.056 1.012 0.169 1.494-5.456-0.275-10.294-2.888-13.531-6.862-0.563 0.969-0.887 2.1-0.887 3.3 0 2.275 1.156 4.287 2.919 5.463-1.075-0.031-2.087-0.331-2.975-0.819 0 0.025 0 0.056 0 0.081 0 3.181 2.263 5.838 5.269 6.437-0.55 0.15-1.131 0.231-1.731 0.231-0.425 0-0.831-0.044-1.237-0.119 0.838 2.606 3.263 4.506 6.131 4.563-2.25 1.762-5.075 2.813-8.156 2.813-0.531 0-1.050-0.031-1.569-0.094 2.913 1.869 6.362 2.95 10.069 2.95 12.075 0 18.681-10.006 18.681-18.681 0-0.287-0.006-0.569-0.019-0.85 1.281-0.919 2.394-2.075 3.275-3.394z"></path>
  </symbol>
  <symbol id="icon-play" viewBox="0 0 32 32">
  <title>play</title>
  <path d="M16 0c-8.837 0-16 7.163-16 16s7.163 16 16 16 16-7.163 16-16-7.163-16-16-16zM16 29c-7.18 0-13-5.82-13-13s5.82-13 13-13 13 5.82 13 13-5.82 13-13 13zM12 9l12 7-12 7z"></path>
  </symbol>
</defs>
</svg>
